<?xml version="1.0" standalone="no"?>
<!DOCTYPE svg PUBLIC "-//W3C//DTD SVG 20010904//EN"
 "http://www.w3.org/TR/2001/REC-SVG-20010904/DTD/svg10.dtd">
<svg version="1.0" xmlns="http://www.w3.org/2000/svg"
 width="1920.000000pt" height="1080.000000pt" viewBox="0 0 1920.000000 1080.000000"
 preserveAspectRatio="xMidYMid meet">

<g transform="translate(0.000000,1080.000000) scale(0.100000,-0.100000)"
fill="#000000" stroke="none">
<path d="M7938 6119 c-20 -11 -23 -44 -9 -82 9 -22 6 -25 -40 -41 l-49 -18 0
-52 c0 -119 91 -130 167 -21 27 39 33 97 16 154 -20 69 -43 85 -85 60z"/>
<path d="M7215 5972 c3 -22 10 -53 15 -70 5 -18 7 -32 5 -32 -3 0 0 -12 5 -26
31 -81 48 -206 49 -361 l1 -163 -167 0 c-93 0 -205 -3 -250 -7 -83 -6 -83 -6
-83 -34 0 -27 1 -28 63 -31 l62 -3 6 -538 c4 -296 8 -539 10 -541 2 -2 15 -6
29 -8 l25 -3 3 548 2 547 443 -2 442 -3 3 -136 3 -135 -37 -17 c-20 -10 -81
-47 -135 -83 -74 -49 -105 -76 -119 -105 -38 -74 -20 -149 48 -194 20 -13 48
-33 62 -44 14 -11 32 -21 41 -21 9 0 24 -9 35 -21 10 -12 38 -32 61 -46 43
-25 43 -25 45 -86 1 -34 2 -73 3 -87 1 -14 2 -44 3 -66 2 -32 7 -43 21 -47 21
-5 43 5 40 19 -1 5 -1 55 0 111 l1 101 48 -18 c26 -10 85 -37 132 -59 46 -23
91 -39 99 -36 21 8 51 -25 51 -57 0 -16 5 -28 13 -28 7 0 18 -9 25 -20 24 -39
92 -18 92 29 0 37 -31 65 -65 57 -14 -4 -25 -5 -25 -2 0 2 13 37 30 77 16 41
30 82 30 91 0 10 -15 26 -34 35 -35 18 -164 96 -264 161 -30 18 -52 35 -50 38
2 2 71 34 154 70 l149 68 250 3 c138 2 260 6 273 9 20 4 23 10 20 46 -4 54
-37 80 -90 72 -23 -4 -38 -12 -38 -20 0 -8 -4 -14 -10 -14 -5 0 -10 7 -10 15
0 12 -11 14 -62 9 l-63 -6 38 38 c64 63 88 134 68 197 l-12 34 -82 0 c-154 0
-177 2 -177 16 0 10 32 12 136 12 l137 -1 -7 97 c-6 91 -22 187 -47 284 -12
46 -76 175 -126 254 -46 72 -89 109 -147 126 -75 22 -204 15 -199 -11 1 -6
-29 -44 -68 -85 -44 -48 -71 -85 -75 -106 -6 -30 18 -124 37 -149 9 -11 -7
-123 -20 -137 -4 -4 -59 -14 -122 -21 -180 -23 -269 -39 -269 -48 0 -7 22 -12
41 -10 16 2 126 22 145 26 43 9 100 17 149 21 28 2 72 7 98 11 38 5 48 3 45
-8 -3 -16 101 -146 118 -147 13 -1 74 -67 74 -79 -1 -9 -105 -72 -120 -72 -15
0 -158 -69 -219 -105 -24 -14 -45 -24 -47 -22 -2 2 -5 53 -6 113 l-3 109 88 3
c59 2 87 7 88 15 0 7 2 22 5 35 l4 22 -199 0 c-168 0 -200 2 -205 15 -4 11
-22 15 -75 15 -38 0 -72 4 -75 9 -3 4 -17 6 -31 3 -15 -2 -25 0 -25 7 0 6 6
11 13 11 6 0 20 7 30 15 18 13 16 14 -20 25 -34 11 -42 9 -83 -14 -44 -25 -36
-35 14 -16 16 6 27 6 31 0 4 -6 -4 -10 -17 -11 -22 0 -22 -1 -3 -9 l20 -9 -20
-1 c-11 -1 -35 -1 -52 0 -27 1 -33 -2 -33 -19 0 -18 -6 -21 -42 -21 l-43 0 4
87 c2 49 6 80 8 71 5 -18 20 -22 46 -12 12 4 9 26 -18 137 -18 73 -47 194 -66
270 -31 127 -35 137 -57 137 -21 0 -22 -3 -17 -38z m1170 -1772 c0 -18 -6 -26
-23 -28 -13 -2 -25 3 -28 12 -10 26 4 48 28 44 17 -2 23 -10 23 -28z"/>
<path d="M8885 5727 c-26 -22 -27 -25 -30 -162 -1 -77 -6 -188 -10 -247 -9
-127 -4 -138 61 -138 41 0 44 2 44 28 0 15 5 70 10 122 5 52 12 165 15 251 l7
156 -24 7 c-37 9 -45 7 -73 -17z"/>
<path d="M8597 4519 c-15 -9 -17 -24 -16 -115 l1 -104 34 2 34 2 0 107 c0 88
-3 108 -16 113 -19 7 -15 8 -37 -5z"/>
<path d="M8836 4241 c-26 -29 -17 -73 17 -85 38 -14 61 2 65 46 3 29 -1 36
-23 46 -34 16 -39 15 -59 -7z m59 -41 c0 -33 -40 -41 -50 -11 -9 28 2 43 28
39 16 -2 22 -10 22 -28z"/>
</g>
</svg>
